<svg width="66" height="27" viewBox="0 0 66 27" fill="none" xmlns="http://www.w3.org/2000/svg">
<path d="M0.246094 26V2.48047H4.55273V26H0.246094ZM13.5 11.3398H13.5703C13.8164 10.9883 14.127 10.6426 14.502 10.3027C14.877 9.96289 15.3047 9.66406 15.7852 9.40625C16.2656 9.14844 16.793 8.94336 17.3672 8.79102C17.9531 8.62695 18.5742 8.54492 19.2305 8.54492C19.8516 8.54492 20.4492 8.61523 21.0234 8.75586C21.6094 8.89648 22.1426 9.11914 22.623 9.42383C23.1035 9.7168 23.5254 10.1035 23.8887 10.584C24.2637 11.0527 24.5566 11.6152 24.7676 12.2715C24.8848 12.6348 24.9609 13.0332 24.9961 13.4668C25.043 13.8887 25.0664 14.3809 25.0664 14.9434V26H20.9004V15.5938C20.9004 15.1367 20.8828 14.7441 20.8477 14.416C20.8125 14.0879 20.748 13.8008 20.6543 13.5547C20.4434 13.0156 20.1211 12.6289 19.6875 12.3945C19.2656 12.1602 18.75 12.043 18.1406 12.043C17.332 12.043 16.5527 12.2363 15.8027 12.623C15.0645 12.998 14.4082 13.5488 13.834 14.2754V26H9.66797V8.9668H13.1133L13.5 11.3398ZM37.1602 26.4395C35.4492 26.4395 34.0312 26.1523 32.9062 25.5781C31.7812 24.9922 30.9316 24.207 30.3574 23.2227C30.0527 22.6953 29.8242 22.1152 29.6719 21.4824C29.5312 20.8496 29.4609 20.1465 29.4609 19.373V8.9668H33.627V18.9336C33.627 19.5078 33.668 20.0059 33.75 20.4277C33.832 20.8379 33.9551 21.1953 34.1191 21.5C34.4004 22.0156 34.7988 22.4023 35.3145 22.6602C35.8301 22.9062 36.4453 23.0293 37.1602 23.0293C37.9102 23.0293 38.5488 22.8887 39.0762 22.6074C39.6152 22.3262 40.0195 21.8984 40.2891 21.3242C40.5586 20.7734 40.6934 20.0059 40.6934 19.0215V8.9668H44.8594V19.373C44.8594 20.7559 44.6191 21.9219 44.1387 22.8711C43.8691 23.4102 43.5176 23.9023 43.084 24.3477C42.6621 24.7812 42.1582 25.1562 41.5723 25.4727C40.998 25.7773 40.3418 26.0117 39.6035 26.1758C38.877 26.3516 38.0625 26.4395 37.1602 26.4395ZM49.4297 0.546875H53.5957V15.875H53.6836L60.1699 8.9668H65.3203L57.8496 16.9648L65.373 26H60.3281L53.666 18.0723H53.5957V26H49.4297V0.546875Z" fill="#5567FF"/>
</svg>
